# xmcd
#
# Track frame offsets:
#	150
#	11541
#	19658
#	28340
#	39586
#	50392
#	63233
#	76899
#	85634
#	98949
#	109269
#	121164
#	133893
#	145994
#	158001
#	166061
#	173664
#	185331
#	194223
#	202640
#	214047
#	222799
#	234443
#	248608
#	260788
#	269097
#	282648
#	295690
#	302722
#	313800
#	322474
#	333216
#
# Disc length: 4613 seconds
#
# Revision: 3
# Processed by: cddbd v1.5.2PL0 Copyright (c) Steve Scherf et al.
# Submitted via: audiograbber 1.83.01
#
DISCID=d6120320,e9120320
DTITLE=Diverse - Das grosse Musikantentreffen - Folge 18
DYEAR=1900
DGENRE=Volksmusik
TTITLE0=Die Schilcher  - I liab di wia i sing
TTITLE1=Schwarzwälder Stockmihli Musikanten  - Hier gehts Dir gut
TTITLE2=Fam. Laimer  - Für unsere Freunde
TTITLE3=Feldberger  - Trachtentrampeltanz
TTITLE4=Hahnenkamm Musikanten mit den Kitzbühler Dirndln - I bin gern lustig
TTITLE5=Reiner Kirsten und die Schwarzwaldfamilie Jälkle - I schenk Dir einen B
TTITLE5=lumenstrauss
TTITLE6=Hansl Krönauer - Mein Herz gehört nach Bayern
TTITLE7=Robert der Serles Bua - Ruck Zuck Polka
TTITLE8=Die Bayrische 7 - Bauernregeln (und des eine, des is g'wiss)
TTITLE9=Orig. Kornberg Buam  - Mit Musik um die Welt
TTITLE10=Die Schwalben  - Zwei Mädchen, eine Leidenschaft
TTITLE11=Klostertaler  - Ohne Berg
TTITLE12=Bettina and Patrizia  - Immer flott unterwegs
TTITLE13=Bayern Pop  - Lass mich Dein Hausfreund sein
TTITLE14=Trio Tirolerland mit Weltmeister Jakob Bergmann - In den Bergen bin i 
TTITLE14=gern
TTITLE15=Orig. Zillertalerer  - Mit Polkaschwung durchs Zillertal
TTITLE16=Igor und seine Oberkarainer - Wieder im Frühling
TTITLE17=Ewald Münzer und sein Orig. Ligister Trio - Senner Jodler
TTITLE18=Donautal Duo - Magst Du mir a Busserl geb'n
TTITLE19=Zillertaler Schürzenjäger - Fremde Kirschen 
TTITLE20=Andreas Terzer und sein Orig. Burggräfler Trio  - Knöpferl Ausflug
TTITLE21=Zillertaler Gipfelstürmer  - Holzknecht-Boarischer
TTITLE22=Gschwandter - So schlau wia die anderen... (san mia allemal)
TTITLE23=Ensemble Gregor Avsenik - Gitarrentanz
TTITLE24=Kaiserwälder Musketiere - Arbeit macht das Leben süss
TTITLE25=3 Lavanttaler - Noch einen Tanz mit Dir
TTITLE26=Die Wäldler - Hand auf's Herz für unser Land
TTITLE27=Tiroler Herzensbrecher - Natterer Polka
TTITLE28=Zillertaler Haderlumpen - Im Zillertal zu leben
TTITLE29=Bad Gleichenberger Musikanten - Auf froher Fahrt
TTITLE30=Duo Sunshine - Mei Herzerl schenk i Dir heut Nacht
TTITLE31=Sandra Weiss - Ich lad' Dich ein
EXTD=
EXTT0=
EXTT1=
EXTT2=
EXTT3=
EXTT4=
EXTT5=
EXTT6=
EXTT7=
EXTT8=
EXTT9=
EXTT10=
EXTT11=
EXTT12=
EXTT13=
EXTT14=
EXTT15=
EXTT16=
EXTT17=
EXTT18=
EXTT19=
EXTT20=
EXTT21=
EXTT22=
EXTT23=
EXTT24=
EXTT25=
EXTT26=
EXTT27=
EXTT28=
EXTT29=
EXTT30=
EXTT31=
PLAYORDER=
